<!DOCTYPE svg PUBLIC "-//W3C//DTD SVG 20010904//EN" "http://www.w3.org/TR/2001/REC-SVG-20010904/DTD/svg10.dtd">
<svg version="1.0" xmlns="http://www.w3.org/2000/svg" width="220px" height="220px" viewBox="0 0 2200 2200" preserveAspectRatio="xMidYMid meet">
<g id="layer101" fill="#14234b" stroke="none">
 <path d="M1135 1769 c-4 -6 -37 -9 -80 -8 -40 1 -77 -1 -84 -5 -17 -11 -13 -41 8 -60 25 -23 32 -95 15 -164 l-13 -57 28 -26 c23 -22 38 -26 87 -27 53 -1 92 -6 215 -28 21 -3 53 -1 72 6 l36 11 -4 142 c-5 163 -12 197 -46 214 -30 16 -225 18 -234 2z m87 -78 c73 -1 88 -4 92 -18 11 -35 16 -119 10 -161 -6 -39 -9 -43 -29 -38 -12 3 -68 9 -124 12 -56 4 -104 10 -106 14 -3 4 1 29 8 56 7 27 12 70 10 95 -2 43 -1 45 25 43 15 -1 66 -2 114 -3z"/>
 <path d="M1528 1413 c-22 -5 -30 -36 -24 -83 3 -19 10 -111 16 -203 5 -92 12 -178 16 -191 5 -23 3 -25 -59 -31 -36 -4 -83 -5 -106 -1 -44 6 -75 -13 -69 -43 5 -27 71 -40 216 -46 157 -5 411 -30 460 -44 39 -12 87 -5 103 15 31 38 -36 87 -114 83 -62 -4 -299 12 -322 21 -32 12 -42 31 -49 85 -9 72 -10 83 -7 155 1 36 -1 96 -5 134 l-7 69 84 -8 c46 -4 117 -9 158 -10 41 -2 85 -9 98 -16 19 -10 29 -10 58 4 40 19 50 36 41 72 -9 35 -38 39 -183 27 -68 -6 -134 -7 -146 -3 -29 11 -137 20 -159 14z"/>
 <path d="M271 1391 c-50 -13 -50 -43 0 -281 5 -25 11 -72 12 -105 l2 -60 -85 2 c-47 1 -101 4 -120 8 -29 5 -37 3 -48 -15 -12 -20 -11 -25 10 -47 21 -23 28 -24 98 -19 207 14 429 18 480 8 30 -6 123 -14 207 -18 l151 -6 16 25 c14 20 15 29 5 51 l-12 26 -176 -1 c-97 -1 -237 -4 -311 -8 -136 -7 -174 -2 -164 23 6 14 -8 128 -30 251 -10 57 -11 83 -4 93 24 28 368 -6 424 -43 45 -29 94 -9 94 40 0 46 -14 51 -185 71 -64 7 -341 11 -364 5z"/>
 <path d="M467 1282 c-10 -4 -23 -19 -31 -33 -11 -21 -10 -27 2 -38 9 -9 12 -24 8 -43 -6 -30 18 -132 36 -155 19 -24 44 -13 72 29 36 55 40 100 13 134 -11 15 -21 34 -22 43 -2 23 -35 71 -49 70 -6 0 -19 -4 -29 -7z"/>
 <path d="M1726 1235 c-23 -23 -35 -45 -36 -62 0 -16 -1 -53 -3 -83 -3 -70 13 -104 57 -117 33 -10 37 -9 61 22 32 43 35 120 5 157 -13 18 -18 36 -15 59 4 32 -8 59 -26 59 -5 0 -24 -16 -43 -35z"/>
 <path d="M400 756 c-46 -12 -160 -87 -179 -118 -8 -13 -7 -21 4 -32 14 -13 21 -12 65 10 27 14 53 31 57 38 24 39 126 55 207 32 31 -9 56 -21 56 -26 0 -6 7 -10 15 -10 9 0 35 -20 58 -45 32 -34 47 -43 64 -39 33 9 33 37 2 84 -16 24 -29 49 -29 56 0 8 -10 16 -22 19 -13 2 -63 14 -111 25 -101 23 -124 24 -187 6z"/>
 <path d="M1725 614 c-53 -16 -145 -98 -145 -129 0 -25 36 -17 86 18 41 29 53 32 117 32 55 0 82 -5 115 -22 47 -26 82 -29 100 -11 35 35 -7 74 -108 104 -81 24 -110 25 -165 8z"/>
 </g>

</svg>